<svg width="25" height="25" viewBox="0 0 25 25" fill="none" xmlns="http://www.w3.org/2000/svg">
<path d="M12.0774 2.64014C6.56343 2.64114 2.07743 7.12714 2.07743 12.6411C2.07743 18.1551 6.56343 22.6411 12.0784 22.6411C17.5914 22.6411 22.0774 18.1551 22.0784 12.6411C22.0784 7.12714 17.5924 2.64114 12.0774 2.64014V2.64014ZM12.0784 20.6411C7.66643 20.6411 4.07743 17.0521 4.07743 12.6411C4.07743 8.23014 7.66643 4.64114 12.0774 4.64014C16.4894 4.64114 20.0784 8.23014 20.0784 12.6411C20.0774 17.0521 16.4884 20.6411 12.0784 20.6411Z" fill="black"/>
<path d="M12.0784 11.6411H8.07843V13.6411H12.0784V16.6471L16.0834 12.6421L12.0784 8.63806V11.6411Z" fill="black"/>
</svg>
