<svg width="160" height="160" viewBox="0 0 160 160" fill="none" xmlns="http://www.w3.org/2000/svg">
<path d="M89.99 70C83.3596 70 77.0007 72.6339 72.3123 77.3223C67.6239 82.0107 64.99 88.3696 64.99 95V100H55C51.0218 100 47.2064 101.58 44.3934 104.393C41.5804 107.206 40 111.022 40 115C40 118.978 41.5804 122.794 44.3934 125.607C47.2064 128.42 51.0218 130 55 130H125C128.978 130 132.794 128.42 135.607 125.607C138.42 122.794 140 118.978 140 115C140 111.022 138.42 107.206 135.607 104.393C132.794 101.58 128.978 100 125 100H115L114.99 95C114.99 88.3696 112.356 82.0107 107.668 77.3223C102.979 72.6339 96.6204 70 89.99 70V70ZM55.35 90C56.5538 81.6715 60.7181 74.0555 67.0798 68.5472C73.4416 63.0389 81.5749 60.007 89.99 60.007C98.4051 60.007 106.538 63.0389 112.9 68.5472C119.262 74.0555 123.426 81.6715 124.63 90H125C131.63 90 137.989 92.6339 142.678 97.3223C147.366 102.011 150 108.37 150 115C150 121.63 147.366 127.989 142.678 132.678C137.989 137.366 131.63 140 125 140H55C48.3696 140 42.0107 137.366 37.3223 132.678C32.6339 127.989 30 121.63 30 115C30 108.37 32.6339 102.011 37.3223 97.3223C42.0107 92.6339 48.3696 90 55 90H55.35V90ZM87.87 28.2C88.1786 27.6202 88.37 26.9853 88.4332 26.3316C88.4965 25.6778 88.4303 25.018 88.2386 24.3898C88.0468 23.7616 87.7332 23.1774 87.3157 22.6704C86.8981 22.1634 86.3848 21.7436 85.805 21.435C85.2252 21.1264 84.5903 20.935 83.9366 20.8718C83.2828 20.8085 82.623 20.8747 81.9948 21.0664C81.3666 21.2582 80.7824 21.5718 80.2754 21.9893C79.7684 22.4069 79.3486 22.9202 79.04 23.5L74.78 31.53C74.1567 32.7009 74.0242 34.0715 74.4114 35.3402C74.7987 36.6089 75.6741 37.6717 76.845 38.295C78.0159 38.9183 79.3865 39.0508 80.6552 38.6636C81.9239 38.2763 82.9867 37.4009 83.61 36.23L87.87 28.19V28.2ZM50.15 20.73C49.9576 20.1016 49.6433 19.5173 49.2251 19.0104C48.8069 18.5035 48.293 18.0839 47.7126 17.7756C47.1322 17.4673 46.4968 17.2763 45.8427 17.2136C45.1885 17.1509 44.5284 17.2176 43.9 17.41C43.2716 17.6024 42.6873 17.9167 42.1804 18.3349C41.6735 18.7531 41.2539 19.267 40.9456 19.8474C40.6373 20.4278 40.4463 21.0632 40.3836 21.7174C40.3209 22.3715 40.3876 23.0316 40.58 23.66L43.25 32.36C43.6532 33.61 44.5321 34.6511 45.6967 35.2583C46.8612 35.8656 48.2179 35.9903 49.4737 35.6054C50.7294 35.2206 51.7833 34.3571 52.4076 33.2015C53.0318 32.046 53.1764 30.6912 52.81 29.43L50.15 20.73ZM60 40C69.16 40 77.35 44.1 82.85 50.56C78.97 51.18 75.26 52.29 71.78 53.84C67.9254 51.0384 63.1972 49.7051 58.4468 50.0803C53.6965 50.4554 49.2362 52.5143 45.8691 55.8862C42.502 59.2581 40.4495 63.7214 40.0812 68.4723C39.7129 73.2231 41.0529 77.9494 43.86 81.8C40.6549 82.8759 37.6232 84.412 34.86 86.36C31.9147 81.8329 30.2462 76.5946 30.0305 71.1981C29.8148 65.8015 31.06 60.4468 33.6346 55.6991C36.2092 50.9513 40.0177 46.9867 44.6582 44.2235C49.2987 41.4604 54.5991 40.0012 60 40ZM18.2 42.14C17.6202 41.8314 16.9853 41.64 16.3316 41.5768C15.6778 41.5135 15.018 41.5797 14.3898 41.7714C13.7616 41.9632 13.1774 42.2768 12.6704 42.6943C12.1634 43.1119 11.7436 43.6252 11.435 44.205C11.1264 44.7848 10.935 45.4197 10.8718 46.0734C10.8085 46.7272 10.8747 47.387 11.0664 48.0152C11.2582 48.6434 11.5718 49.2276 11.9893 49.7346C12.4069 50.2416 12.9202 50.6614 13.5 50.97L21.53 55.23C22.7009 55.8533 24.0715 55.9858 25.3402 55.5986C26.6089 55.2113 27.6717 54.3359 28.295 53.165C28.9183 51.9941 29.0508 50.6235 28.6636 49.3548C28.2763 48.0862 27.4009 47.0233 26.23 46.4L18.19 42.14H18.2ZM22.36 86.77C23.61 86.3668 24.6511 85.4879 25.2583 84.3234C25.8656 83.1588 25.9903 81.8021 25.6054 80.5463C25.2206 79.2906 24.3571 78.2367 23.2015 77.6124C22.046 76.9882 20.6912 76.8436 19.43 77.21L10.73 79.87C10.0935 80.0549 9.50019 80.3645 8.98445 80.7808C8.46872 81.1971 8.04089 81.7117 7.72586 82.2949C7.41082 82.878 7.21486 83.5179 7.14938 84.1775C7.08389 84.837 7.15018 85.503 7.3444 86.1366C7.53861 86.7703 7.85687 87.3591 8.28068 87.8687C8.70448 88.3782 9.22536 88.7985 9.81304 89.1049C10.4007 89.4114 11.0435 89.5979 11.7039 89.6537C12.3643 89.7095 13.0292 89.6335 13.66 89.43L22.36 86.77Z" fill="white"/>
</svg>
