<svg width="160" height="160" viewBox="0 0 160 160" fill="none" xmlns="http://www.w3.org/2000/svg">
<path d="M79.9733 128.217C82.13 128.217 83.9067 129.857 84.12 131.957L84.14 132.383V142.51C84.1357 143.575 83.7234 144.599 82.9879 145.37C82.2524 146.141 81.2494 146.6 80.1853 146.655C79.1212 146.709 78.0768 146.353 77.2667 145.661C76.4567 144.969 75.9425 143.993 75.83 142.933L75.8067 142.51V132.383C75.8067 130.083 77.6733 128.217 79.9733 128.217ZM119.65 113.66L119.987 113.96L127.147 121.123C127.9 121.877 128.337 122.89 128.366 123.956C128.395 125.021 128.015 126.057 127.304 126.851C126.593 127.645 125.604 128.136 124.542 128.223C123.48 128.31 122.425 127.987 121.593 127.32L121.253 127.017L114.093 119.857C113.325 119.106 112.876 118.088 112.84 117.014C112.805 115.941 113.185 114.895 113.902 114.095C114.619 113.295 115.617 112.803 116.688 112.721C117.759 112.64 118.82 112.975 119.65 113.657V113.66ZM45.85 113.96C46.5765 114.686 47.0093 115.655 47.0653 116.68C47.1213 117.706 46.7965 118.716 46.1533 119.517L45.85 119.857L38.69 127.017C37.9376 127.777 36.9217 128.218 35.8527 128.25C34.7837 128.282 33.7435 127.901 32.9473 127.187C32.151 126.473 31.6598 125.481 31.5753 124.414C31.4908 123.348 31.8195 122.291 32.4933 121.46L32.7967 121.123L39.9567 113.963C40.3436 113.576 40.803 113.269 41.3086 113.06C41.8142 112.85 42.3561 112.743 42.9033 112.743C43.4506 112.743 43.9925 112.85 44.4981 113.06C45.0037 113.269 45.4631 113.576 45.85 113.963V113.96ZM80 43.6C100.1 43.6 116.4 59.9 116.4 80C116.4 100.1 100.1 116.4 80 116.4C59.9 116.4 43.6 100.1 43.6 80C43.6 59.9 59.9 43.6 80 43.6ZM80 51.9334C72.5562 51.9334 65.4174 54.8904 60.1539 60.1539C54.8903 65.4174 51.9333 72.5563 51.9333 80C51.9333 87.4438 54.8903 94.5826 60.1539 99.8462C65.4174 105.11 72.5562 108.067 80 108.067C87.4437 108.067 94.5826 105.11 99.8461 99.8462C105.11 94.5826 108.067 87.4438 108.067 80C108.067 72.5563 105.11 65.4174 99.8461 60.1539C94.5826 54.8904 87.4437 51.9334 80 51.9334V51.9334ZM142.433 75.9567C143.505 75.9508 144.538 76.3581 145.317 77.094C146.096 77.8299 146.562 78.8377 146.617 79.9081C146.673 80.9784 146.313 82.0289 145.614 82.8413C144.915 83.6536 143.93 84.1653 142.863 84.27L142.437 84.29H132.31C131.245 84.2858 130.221 83.8735 129.45 83.1379C128.679 82.4024 128.22 81.3995 128.165 80.3354C128.111 79.2713 128.467 78.2268 129.159 77.4168C129.851 76.6067 130.827 76.0926 131.887 75.98L132.31 75.9567H142.437H142.433ZM27.69 75.7634C28.7555 75.7676 29.7788 76.1799 30.5497 76.9155C31.3206 77.651 31.7804 78.6539 31.8346 79.718C31.8888 80.7821 31.5333 81.8266 30.8411 82.6366C30.149 83.4467 29.1729 83.9608 28.1133 84.0734L27.69 84.0967H17.5633C16.4919 84.1017 15.4597 83.6937 14.6812 82.9576C13.9027 82.2214 13.4377 81.2137 13.3828 80.1436C13.3279 79.0736 13.6872 78.0235 14.3863 77.2116C15.0854 76.3996 16.0703 75.8881 17.1367 75.7834L17.5633 75.7634H27.69V75.7634ZM38.3533 32.68L38.69 32.9834L45.85 40.1434C46.6112 40.8952 47.0541 41.911 47.0868 42.9805C47.1195 44.0499 46.7396 45.0909 46.0258 45.8879C45.3119 46.6848 44.3189 47.1766 43.2523 47.2614C42.1858 47.3462 41.1275 47.0175 40.2967 46.3434L39.9567 46.0367L32.7967 38.8767C32.0367 38.1243 31.5951 37.1084 31.5633 36.0394C31.5315 34.9705 31.912 33.9302 32.626 33.134C33.34 32.3377 34.3328 31.8465 35.3989 31.762C36.465 31.6775 37.5228 32.0062 38.3533 32.68V32.68ZM127.147 32.9834C127.873 33.7093 128.306 34.6781 128.362 35.7036C128.418 36.7292 128.093 37.7393 127.45 38.54L127.15 38.8767L119.987 46.0367C119.233 46.7904 118.22 47.2268 117.154 47.256C116.089 47.2853 115.053 46.9051 114.259 46.1939C113.465 45.4826 112.974 44.4942 112.887 43.432C112.8 42.3699 113.123 41.3146 113.79 40.4834L114.093 40.1434L121.253 32.9834C121.64 32.5963 122.1 32.2893 122.605 32.0799C123.111 31.8704 123.653 31.7626 124.2 31.7626C124.747 31.7626 125.289 31.8704 125.795 32.0799C126.3 32.2893 126.76 32.5963 127.147 32.9834ZM80 13.3234C82.16 13.3234 83.9333 14.9634 84.1467 17.0667L84.1667 17.49V27.6167C84.1632 28.6824 83.7515 29.7064 83.0162 30.4779C82.281 31.2493 81.278 31.7098 80.2137 31.7644C79.1493 31.8191 78.1045 31.4638 77.2941 30.7717C76.4836 30.0795 75.9692 29.1032 75.8567 28.0434L75.8333 27.6167V17.49C75.8333 15.19 77.7 13.3234 80 13.3234Z" fill="white"/>
</svg>
