<svg width="160" height="160" viewBox="0 0 160 160" fill="none" xmlns="http://www.w3.org/2000/svg">
<path d="M78.5 30.15C86.9699 30.8204 95.1293 33.638 102.208 38.3371C109.287 43.0361 115.051 49.4614 118.957 57.0066C122.864 64.5518 124.783 72.968 124.533 81.4607C124.284 89.9535 121.875 98.2426 117.533 105.546C113.191 112.849 107.06 118.925 99.7177 123.201C92.3756 127.477 84.065 129.811 75.5704 129.984C67.0758 130.156 58.6773 128.161 51.1676 124.187C43.658 120.213 37.2849 114.391 32.65 107.27C46.68 103.47 65.81 94.25 74.25 71.76C79.77 57.02 80.09 42.38 78.5 30.16V30.15ZM134.56 80C134.56 71.9442 132.937 63.971 129.789 56.5557C126.641 49.1405 122.031 42.4352 116.236 36.8396C110.441 31.244 103.578 26.8728 96.0571 23.9865C88.5361 21.1002 80.5109 19.758 72.46 20.04C71.7394 20.0637 71.0325 20.2429 70.3877 20.5653C69.7429 20.8878 69.1755 21.3459 68.7243 21.9082C68.2731 22.4705 67.9489 23.1238 67.7738 23.8231C67.5987 24.5225 67.577 25.2514 67.71 25.96C70.01 38.1 70.51 53.24 64.88 68.24C56.88 89.58 36.86 96.64 24.11 98.95C23.351 99.0873 22.634 99.3983 22.0152 99.8587C21.3964 100.319 20.8924 100.916 20.5429 101.604C20.1933 102.292 20.0075 103.051 20.0001 103.822C19.9926 104.593 20.1637 105.356 20.5 106.05C26.3976 118.299 36.2802 128.182 48.5288 134.08C60.7774 139.978 74.6659 141.542 87.9193 138.515C101.173 135.488 113.005 128.05 121.479 117.419C129.953 106.788 134.565 93.5947 134.56 80V80Z" fill="white"/>
</svg>
