<svg width="160" height="160" viewBox="0 0 160 160" fill="none" xmlns="http://www.w3.org/2000/svg">
<path d="M86.65 53.3267C107.773 53.3267 119.757 67.3067 121.497 84.1933H122.03C135.627 84.1933 146.647 95.1867 146.647 108.743C146.647 122.303 135.627 133.293 122.03 133.293H51.2667C37.6767 133.293 26.6567 122.303 26.6567 108.743C26.6567 95.1867 37.6767 84.1933 51.27 84.1933H51.8033C53.5567 67.1967 65.53 53.3267 86.6533 53.3267H86.65ZM86.65 61.6433C72.4467 61.6433 60.0667 73.1367 60.0667 89.01C60.0667 91.5267 57.8767 93.5033 55.3733 93.5033H50.64C41.99 93.5033 34.9833 100.547 34.9833 109.237C34.9833 117.93 41.9933 124.977 50.64 124.977H122.66C131.307 124.977 138.317 117.93 138.317 109.24C138.317 100.547 131.307 93.5 122.66 93.5H117.927C115.42 93.5 113.233 91.5267 113.233 89.0133C113.233 72.9333 100.853 61.6467 86.65 61.6467V61.6433ZM29.0167 80.9733C29.4086 81.9216 29.435 82.9815 29.0909 83.9481C28.7467 84.9148 28.0564 85.7195 27.1533 86.2067L26.77 86.39L19.0667 89.5933C18.083 90.0121 16.9756 90.0344 15.9758 89.6557C14.9761 89.2769 14.1614 88.5264 13.7022 87.5609C13.2429 86.5955 13.1746 85.4899 13.5115 84.4753C13.8484 83.4607 14.5645 82.6156 15.51 82.1167L15.8933 81.9333L23.5967 78.73C24.6125 78.3095 25.7537 78.3095 26.7695 78.7302C27.7852 79.1509 28.5923 79.9577 29.0133 80.9733H29.0167ZM72.35 48.8333L72.1433 48.9C69.06 49.9067 66.1967 51.24 63.5767 52.8667C59.9968 51.3519 56.028 51.0142 52.2437 51.9023C48.4593 52.7905 45.0552 54.8585 42.5229 57.8077C39.9906 60.757 38.4613 64.4347 38.1558 68.3099C37.8503 72.1851 38.7845 76.0571 40.8233 79.3667C38.3139 80.2628 35.9309 81.4796 33.7333 82.9867C30.6664 77.7342 29.5166 71.5805 30.48 65.5751C31.4433 59.5696 34.4602 54.0843 39.016 50.0546C43.5719 46.025 49.3846 43.7006 55.4627 43.4779C61.5409 43.2552 67.5081 45.1479 72.3467 48.8333H72.35ZM18.5867 49.4333L19.01 49.5867L26.74 52.8833C28.84 53.77 29.8467 56.2 28.99 58.3133C28.19 60.2833 26.0467 61.28 24.0567 60.68L23.6367 60.53L15.9033 57.2333C14.8931 56.8018 14.0922 55.9917 13.6722 54.9767C13.2523 53.9616 13.2467 52.8224 13.6567 51.8033C14.4567 49.8333 16.5967 48.8367 18.5867 49.4367V49.4333ZM43.1467 28.8567L43.33 29.24L46.53 36.9267C46.9315 37.912 46.9408 39.0135 46.5561 40.0055C46.1714 40.9975 45.4218 41.8047 44.4609 42.2617C43.5001 42.7186 42.4009 42.7907 41.3886 42.4632C40.3763 42.1356 39.5277 41.4332 39.0167 40.5L38.8333 40.1167L35.6333 32.43C35.2319 31.4447 35.2225 30.3431 35.6073 29.3511C35.992 28.3592 36.7416 27.552 37.7024 27.095C38.6633 26.638 39.7625 26.5659 40.7748 26.8935C41.7871 27.221 42.6357 27.9234 43.1467 28.8567V28.8567ZM73.31 26.99C75.3133 27.82 76.3367 30.0233 75.7433 32.0567L75.59 32.49L72.2833 40.0767C71.8645 41.0625 71.0859 41.8517 70.1059 42.284C69.1259 42.7163 68.0181 42.7591 67.0077 42.4037C65.9973 42.0484 65.1601 41.3216 64.6664 40.371C64.1727 39.4205 64.0596 38.3176 64.35 37.2867L64.5033 36.8533L67.8033 29.2667C68.0154 28.7556 68.3261 28.2913 68.7176 27.9003C69.1091 27.5093 69.5738 27.1992 70.0851 26.9878C70.5965 26.7764 71.1445 26.6678 71.6978 26.6682C72.2511 26.6685 72.799 26.7779 73.31 26.99Z" fill="white"/>
</svg>
