<svg width="160" height="160" viewBox="0 0 160 160" fill="none" xmlns="http://www.w3.org/2000/svg">
<path d="M86.67 53.3667C107.793 53.3667 119.777 67.3467 121.52 84.2333H122.053C135.647 84.2333 146.667 95.2233 146.667 108.783C146.667 122.343 135.647 133.333 122.053 133.333H51.2867C37.6933 133.333 26.6733 122.343 26.6733 108.783C26.6733 95.2233 37.6933 84.2333 51.2867 84.2333H51.82C53.5733 67.2333 65.5467 53.3667 86.67 53.3667V53.3667ZM86.67 61.6833C72.4667 61.6833 60.0867 73.1767 60.0867 89.05C60.0867 91.5667 57.9 93.54 55.3967 93.54H50.66C42.0133 93.54 35.0033 100.587 35.0033 109.277C35.0033 117.97 42.0133 125.017 50.66 125.017H122.68C131.327 125.017 138.337 117.97 138.337 109.277C138.337 100.587 131.327 93.5433 122.68 93.5433H117.947C115.44 93.5433 113.253 91.5667 113.253 89.05C113.253 72.9733 100.873 61.6833 86.67 61.6833V61.6833ZM43.9367 26.6733C49.2367 26.96 54.38 28.4867 59.02 31.1667C65.7846 35.0581 70.9894 41.176 73.7467 48.4767C71.2277 49.1877 68.784 50.1422 66.45 51.3267C64.3167 45.5233 59.5833 40.8067 53.1467 37.12C51.6477 36.2745 50.0515 35.6141 48.3933 35.1533C49.6067 45.2867 49.2167 52.18 44.87 60.4133L43.9767 62.01C39.66 69.3333 33.2867 73.6667 23.56 78.1433C24.6333 79.2033 26.27 80.45 27.6 81.39C29.11 82.4567 30.6767 83.3667 32.28 84.1167C29.9739 85.9063 27.9287 88.0088 26.2033 90.3633L25.17 89.79C20.8162 87.2823 17.0774 83.8339 14.2267 79.6967C13.7923 79.0653 13.5087 78.3427 13.3977 77.5844C13.2866 76.8261 13.3511 76.0525 13.5862 75.3231C13.8213 74.5937 14.2207 73.928 14.7536 73.3773C15.2865 72.8266 15.9387 72.4056 16.66 72.1467C27.61 68.2267 33.51 63.8133 36.8833 57.3733C40.57 50.34 41.25 42.88 38.8033 32.86C38.6181 32.101 38.613 31.3092 38.7885 30.5479C38.964 29.7866 39.3153 29.077 39.8142 28.4757C40.313 27.8745 40.9457 27.3983 41.6615 27.0854C42.3774 26.7724 43.1565 26.6313 43.9367 26.6733V26.6733Z" fill="white"/>
</svg>
