<svg width="160" height="160" viewBox="0 0 160 160" fill="none" xmlns="http://www.w3.org/2000/svg">
<path d="M43.4833 66.6667C45.1667 47.9767 60.8733 33.3334 80 33.3334C99.1267 33.3334 114.833 47.9767 116.517 66.6667H117.5C124.351 66.6667 130.922 69.3884 135.767 74.2331C140.612 79.0778 143.333 85.6486 143.333 92.5C143.333 99.3515 140.612 105.922 135.767 110.767C130.922 115.612 124.351 118.333 117.5 118.333H42.5C35.6486 118.333 29.0778 115.612 24.2331 110.767C19.3884 105.922 16.6667 99.3515 16.6667 92.5C16.6667 85.6486 19.3884 79.0778 24.2331 74.2331C29.0778 69.3884 35.6486 66.6667 42.5 66.6667H43.4833ZM80 41.6667C72.4855 41.6667 65.2788 44.6518 59.9653 49.9653C54.6518 55.2789 51.6667 62.4856 51.6667 70V70.8334C51.6667 73.1334 49.8 75 47.5 75H42.5C37.8587 75 33.4075 76.8438 30.1256 80.1257C26.8437 83.4076 25 87.8588 25 92.5C25 97.1413 26.8437 101.593 30.1256 104.874C33.4075 108.156 37.8587 110 42.5 110H117.5C122.141 110 126.592 108.156 129.874 104.874C133.156 101.593 135 97.1413 135 92.5C135 87.8588 133.156 83.4076 129.874 80.1257C126.592 76.8438 122.141 75 117.5 75H112.5C110.2 75 108.333 73.1334 108.333 70.8334V70C108.333 62.4856 105.348 55.2789 100.035 49.9653C94.7212 44.6518 87.5145 41.6667 80 41.6667V41.6667Z" fill="white"/>
</svg>
