<svg width="160" height="160" viewBox="0 0 160 160" fill="none" xmlns="http://www.w3.org/2000/svg">
<path d="M86.6767 46.7266C107.8 46.7266 119.783 60.7066 121.527 77.5933H122.06C135.653 77.5933 146.673 88.5866 146.673 102.143C146.673 115.703 135.653 126.693 122.06 126.693H51.2933C37.7 126.693 26.68 115.703 26.68 102.143C26.68 88.8566 37.2667 78.0333 50.48 77.6066L51.83 77.5933C53.5833 60.5966 65.5533 46.7266 86.6767 46.7266V46.7266ZM86.6767 55.0433C72.4767 55.0433 60.0933 66.5366 60.0933 82.41C60.0933 84.9266 57.9067 86.9 55.4033 86.9H50.6667C42.0167 86.9 35.0067 93.9466 35.0067 102.64C35.0067 111.33 42.0167 118.377 50.6633 118.377H122.683C131.333 118.377 138.34 111.33 138.34 102.64C138.34 93.9466 131.333 86.9 122.683 86.9H117.95C115.443 86.9 113.257 84.9266 113.257 82.4133C113.257 66.3333 100.877 55.0433 86.6733 55.0433H86.6767ZM66.6667 26.6666C71.7795 26.6642 76.8158 27.9088 81.3389 30.2926C85.862 32.6765 89.7354 36.1275 92.6233 40.3466C88.8187 39.8968 84.9755 39.8778 81.1667 40.29C77.1414 36.8005 71.9939 34.8775 66.6667 34.8733C55.72 34.8733 46.39 42.95 44.5233 53.86L43.4767 59.96C43.3444 60.7359 42.9419 61.4399 42.3404 61.9475C41.7388 62.4551 40.9771 62.7335 40.19 62.7333H33.7C26.8233 62.7333 21.25 68.4333 21.25 75.47C21.25 79.1566 22.7833 82.4766 25.2267 84.8033C23.7771 86.9716 22.6078 89.3147 21.7467 91.7766C18.1566 88.9725 15.5313 85.1177 14.2369 80.7499C12.9426 76.3822 13.0439 71.7194 14.5265 67.412C16.0092 63.1046 18.7993 59.3674 22.5077 56.7217C26.2161 54.0759 30.6579 52.6537 35.2133 52.6533H35.6867C36.9744 45.3722 40.785 38.777 46.45 34.0251C52.115 29.2732 59.2725 26.668 66.6667 26.6666V26.6666Z" fill="white"/>
</svg>
