<svg width="160" height="160" viewBox="0 0 160 160" fill="none" xmlns="http://www.w3.org/2000/svg">
<path d="M79.9967 20C101.12 20 113.103 33.9833 114.847 50.8667H115.38C128.973 50.8667 139.993 61.86 139.993 75.4167C139.993 88.9767 128.973 99.9667 115.38 99.9667L109.637 99.97L109.623 100H107.67L101.1 111.267C100.824 111.739 100.458 112.153 100.022 112.484C99.5866 112.816 99.0899 113.058 98.5607 113.197C98.0314 113.336 97.4798 113.37 96.9375 113.296C96.3952 113.222 95.8728 113.042 95.4 112.767C94.9272 112.491 94.5134 112.125 94.1822 111.689C93.851 111.253 93.6088 110.757 93.4695 110.227C93.3302 109.698 93.2965 109.146 93.3704 108.604C93.4443 108.062 93.6242 107.539 93.9 107.067L98.0433 99.9667L83.8467 99.97L83.8367 100H81.0033L74.4333 111.267C74.1576 111.739 73.7914 112.153 73.3557 112.484C72.92 112.816 72.4233 113.058 71.894 113.197C71.3647 113.336 70.8131 113.37 70.2708 113.296C69.7285 113.222 69.2061 113.042 68.7333 112.767C68.2606 112.491 67.8468 112.125 67.5155 111.689C67.1843 111.253 66.9421 110.757 66.8028 110.227C66.6635 109.698 66.6299 109.146 66.7037 108.604C66.7776 108.062 66.9576 107.539 67.2333 107.067L71.3767 99.9667L58.06 99.97L58.05 100H54.34L47.7667 111.267C47.4909 111.739 47.1247 112.153 46.689 112.484C46.2533 112.816 45.7566 113.058 45.2273 113.197C44.698 113.336 44.1465 113.37 43.6042 113.296C43.0619 113.222 42.5394 113.042 42.0667 112.767C41.5939 112.491 41.1801 112.125 40.8489 111.689C40.5176 111.253 40.2754 110.757 40.1362 110.227C39.9969 109.698 39.9632 109.146 40.0371 108.604C40.1109 108.062 40.2909 107.539 40.5667 107.067L44.71 99.9667H44.6133C31.02 99.9667 20 88.9767 20 75.4167C20 61.86 31.02 50.8667 44.6133 50.8667H45.1467C46.9 33.87 58.8733 20 80 20H79.9967ZM79.9967 28.3167C65.7933 28.3167 53.4133 39.81 53.4133 55.6833C53.4133 58.2 51.2267 60.1767 48.72 60.1767H43.9867C35.34 60.1767 28.33 67.22 28.33 75.91C28.33 84.6033 35.34 91.65 43.9867 91.65H116.007C124.653 91.65 131.663 84.6033 131.663 75.9133C131.663 67.22 124.653 60.1733 116.007 60.1733H111.273C108.767 60.1733 106.58 58.2 106.58 55.6867C106.58 39.6067 94.2 28.32 79.9967 28.32V28.3167Z" fill="white"/>
<path d="M58.7667 115.567C59.2395 115.842 59.6534 116.208 59.9847 116.644C60.3161 117.08 60.5583 117.577 60.6976 118.106C60.8369 118.635 60.8705 119.187 60.7966 119.729C60.7226 120.271 60.5426 120.794 60.2667 121.267L54.4333 131.267C54.1575 131.739 53.7913 132.153 53.3556 132.484C52.9199 132.816 52.4233 133.058 51.894 133.197C51.3647 133.336 50.8131 133.37 50.2708 133.296C49.7285 133.222 49.2061 133.042 48.7333 132.767C48.2606 132.491 47.8468 132.125 47.5155 131.689C47.1843 131.253 46.9421 130.757 46.8028 130.227C46.6635 129.698 46.6299 129.146 46.7037 128.604C46.7776 128.062 46.9575 127.539 47.2333 127.067L53.0667 117.067C53.3423 116.594 53.7085 116.18 54.1442 115.849C54.5798 115.517 55.0765 115.275 55.6059 115.136C56.1352 114.996 56.6868 114.963 57.2291 115.037C57.7715 115.111 58.2939 115.291 58.7667 115.567Z" fill="white"/>
<path d="M86.9333 121.267C87.2091 120.794 87.3891 120.271 87.4629 119.729C87.5368 119.187 87.5031 118.635 87.3638 118.106C87.2246 117.577 86.9824 117.08 86.6511 116.644C86.3199 116.209 85.9061 115.842 85.4333 115.567C84.9606 115.291 84.4381 115.111 83.8958 115.037C83.3535 114.963 82.802 114.997 82.2727 115.136C81.7434 115.275 81.2467 115.518 80.811 115.849C80.3753 116.18 80.0091 116.594 79.7333 117.067L73.9 127.067C73.6242 127.539 73.4443 128.062 73.3704 128.604C73.2965 129.146 73.3302 129.698 73.4695 130.227C73.6088 130.757 73.851 131.253 74.1822 131.689C74.5134 132.125 74.9273 132.491 75.4 132.767C75.8728 133.042 76.3952 133.222 76.9375 133.296C77.4798 133.37 78.0314 133.336 78.5607 133.197C79.09 133.058 79.5866 132.816 80.0223 132.484C80.458 132.153 80.8242 131.739 81.1 131.267L86.9333 121.267Z" fill="white"/>
</svg>
