<svg width="160" height="160" viewBox="0 0 160 160" fill="none" xmlns="http://www.w3.org/2000/svg">
<path d="M86.6667 133.437C88.4348 133.437 90.1305 134.139 91.3807 135.389C92.631 136.639 93.3333 138.335 93.3333 140.103C93.3333 141.871 92.631 143.567 91.3807 144.817C90.1305 146.068 88.4348 146.77 86.6667 146.77C84.8986 146.77 83.2029 146.068 81.9526 144.817C80.7024 143.567 80 141.871 80 140.103C80 138.335 80.7024 136.639 81.9526 135.389C83.2029 134.139 84.8986 133.437 86.6667 133.437V133.437ZM63.3333 126.77C65.1015 126.77 66.7971 127.472 68.0474 128.723C69.2976 129.973 70 131.669 70 133.437C70 135.205 69.2976 136.9 68.0474 138.151C66.7971 139.401 65.1015 140.103 63.3333 140.103C61.5652 140.103 59.8695 139.401 58.6193 138.151C57.3691 136.9 56.6667 135.205 56.6667 133.437C56.6667 131.669 57.3691 129.973 58.6193 128.723C59.8695 127.472 61.5652 126.77 63.3333 126.77V126.77ZM110 126.77C111.768 126.77 113.464 127.472 114.714 128.723C115.964 129.973 116.667 131.669 116.667 133.437C116.667 135.205 115.964 136.9 114.714 138.151C113.464 139.401 111.768 140.103 110 140.103C108.232 140.103 106.536 139.401 105.286 138.151C104.036 136.9 103.333 135.205 103.333 133.437C103.333 131.669 104.036 129.973 105.286 128.723C106.536 127.472 108.232 126.77 110 126.77ZM86.6633 40.0333C107.787 40.0333 119.77 54.0133 121.513 70.9H122.047C135.64 70.9 146.66 81.89 146.66 95.45C146.66 109.01 135.64 120 122.047 120H51.28C37.6867 120 26.6667 109.01 26.6667 95.45C26.6667 81.89 37.6867 70.9 51.28 70.9H51.8133C53.5667 53.9033 65.54 40.0333 86.6633 40.0333V40.0333ZM86.6633 48.35C72.46 48.35 60.08 59.8433 60.08 75.7166C60.08 78.2333 57.8933 80.2066 55.3867 80.2066H50.6533C42.0067 80.2066 34.9967 87.2533 34.9967 95.9433C34.9967 104.637 42.0067 111.683 50.6533 111.683H122.673C131.32 111.683 138.33 104.637 138.33 95.9433C138.33 87.2533 131.32 80.21 122.673 80.21H117.94C115.433 80.21 113.247 78.2333 113.247 75.7166C113.247 59.64 100.867 48.35 86.6633 48.35V48.35ZM29.03 67.6766C29.4222 68.6245 29.4491 69.6841 29.1056 70.6507C28.7621 71.6173 28.0725 72.4222 27.17 72.91L26.7867 73.0933L19.08 76.3C18.0997 76.6987 17.0039 76.7075 16.0173 76.3245C15.0307 75.9416 14.2278 75.1959 13.7732 74.2401C13.3185 73.2844 13.2465 72.191 13.5719 71.184C13.8973 70.1769 14.5954 69.3323 15.5233 68.8233L15.9067 68.6399L23.6133 65.4333C24.6292 65.0128 25.7704 65.0128 26.7861 65.4335C27.8019 65.8542 28.609 66.661 29.03 67.6766ZM72.3633 35.5433L72.1567 35.6066C69.0767 36.6133 66.21 37.9466 63.59 39.5733C60.0101 38.0585 56.0414 37.7208 52.257 38.609C48.4726 39.4971 45.0685 41.5651 42.5362 44.5144C40.004 47.4636 38.4747 51.1414 38.1692 55.0165C37.8637 58.8917 38.7978 62.7637 40.8367 66.0733C38.3284 66.9696 35.9464 68.1864 33.75 69.6933C30.6831 64.4409 29.5333 58.2872 30.4966 52.2817C31.46 46.2762 34.4768 40.7909 39.0327 36.7613C43.5885 32.7316 49.4012 30.4072 55.4794 30.1845C61.5576 29.9618 67.5248 31.8545 72.3633 35.54V35.5433ZM18.6 36.14L19.0233 36.2933L26.7567 39.59C28.8533 40.4766 29.86 42.9066 29.0033 45.0166C28.2033 46.99 26.06 47.9833 24.07 47.3866L23.65 47.2366L15.92 43.9366C14.91 43.5057 14.109 42.6964 13.6884 41.6821C13.2678 40.6678 13.2612 39.5291 13.67 38.51C14.47 36.54 16.6133 35.5433 18.6033 36.14H18.6ZM43.1633 15.56L43.3467 15.9466L46.5467 23.6333C46.9565 24.6204 46.9712 25.7273 46.588 26.725C46.2047 27.7227 45.4526 28.535 44.4874 28.9939C43.5221 29.4528 42.4173 29.5232 41.4016 29.1905C40.3859 28.8579 39.5368 28.1476 39.03 27.2066L38.8467 26.8233L35.6467 19.1366C35.2321 18.1487 35.2139 17.0391 35.596 16.0382C35.978 15.0373 36.731 14.222 37.6984 13.7616C38.6658 13.3013 39.7734 13.2313 40.7911 13.5662C41.8087 13.9011 42.6583 14.6151 43.1633 15.56V15.56ZM73.3233 13.6933C75.33 14.5266 76.3533 16.7266 75.7567 18.7633L75.6033 19.1966L72.2967 26.7833C71.8778 27.7691 71.0993 28.5584 70.1193 28.9906C69.1393 29.4229 68.0315 29.4657 67.021 29.1104C66.0106 28.755 65.1734 28.0282 64.6798 27.0777C64.1861 26.1271 64.0729 25.0243 64.3633 23.9933L64.5167 23.56L67.82 15.9733C68.2477 14.9414 69.0677 14.1215 70.0997 13.6939C71.1316 13.2664 72.2912 13.2662 73.3233 13.6933V13.6933Z" fill="white"/>
</svg>
