<svg width="160" height="160" viewBox="0 0 160 160" fill="none" xmlns="http://www.w3.org/2000/svg">
<path d="M86.6667 133.437C88.4348 133.437 90.1305 134.139 91.3807 135.389C92.631 136.639 93.3333 138.335 93.3333 140.103C93.3333 141.871 92.631 143.567 91.3807 144.817C90.1305 146.068 88.4348 146.77 86.6667 146.77C84.8986 146.77 83.2029 146.068 81.9526 144.817C80.7024 143.567 80 141.871 80 140.103C80 138.335 80.7024 136.639 81.9526 135.389C83.2029 134.139 84.8986 133.437 86.6667 133.437V133.437ZM63.3333 126.77C65.1014 126.77 66.7971 127.472 68.0474 128.723C69.2976 129.973 70 131.668 70 133.437C70 135.205 69.2976 136.9 68.0474 138.151C66.7971 139.401 65.1014 140.103 63.3333 140.103C61.5652 140.103 59.8695 139.401 58.6193 138.151C57.369 136.9 56.6667 135.205 56.6667 133.437C56.6667 131.668 57.369 129.973 58.6193 128.723C59.8695 127.472 61.5652 126.77 63.3333 126.77V126.77ZM110 126.77C111.768 126.77 113.464 127.472 114.714 128.723C115.964 129.973 116.667 131.668 116.667 133.437C116.667 135.205 115.964 136.9 114.714 138.151C113.464 139.401 111.768 140.103 110 140.103C108.232 140.103 106.536 139.401 105.286 138.151C104.036 136.9 103.333 135.205 103.333 133.437C103.333 131.668 104.036 129.973 105.286 128.723C106.536 127.472 108.232 126.77 110 126.77ZM86.6633 40.0333C107.787 40.0333 119.77 54.0133 121.513 70.9H122.047C135.64 70.9 146.66 81.89 146.66 95.45C146.66 109.01 135.64 120 122.047 120H51.28C37.6867 120 26.6667 109.01 26.6667 95.45C26.6667 81.89 37.6867 70.9 51.28 70.9H51.8133C53.5667 53.9 65.54 40.0333 86.6633 40.0333V40.0333ZM86.6633 48.35C72.46 48.35 60.08 59.8433 60.08 75.7166C60.08 78.2333 57.8933 80.2066 55.3867 80.2066H50.6533C42.0067 80.2066 34.9967 87.2533 34.9967 95.9433C34.9967 104.637 42.0067 111.683 50.6533 111.683H122.673C131.32 111.683 138.33 104.637 138.33 95.9433C138.33 87.2533 131.32 80.21 122.673 80.21H117.94C115.433 80.21 113.247 78.2333 113.247 75.7166C113.247 59.64 100.867 48.35 86.6633 48.35V48.35ZM43.9267 13.34C49.2267 13.6266 54.3733 15.1533 59.0133 17.8333C65.7781 21.7245 70.983 27.8425 73.74 35.1433C71.2211 35.8543 68.7773 36.8088 66.4433 37.9933C64.31 32.19 59.5767 27.4733 53.1367 23.7866C51.6387 22.9413 50.0437 22.2809 48.3867 21.82C49.6 31.9533 49.21 38.8466 44.8633 47.08L43.97 48.6766C39.6533 56 33.28 60.3333 23.5533 64.81C24.6267 65.87 26.26 67.1166 27.5933 68.0566C29.1033 69.1233 30.67 70.0333 32.27 70.7833C29.9651 72.5732 27.921 74.6756 26.1967 77.03L25.1633 76.4566C20.8083 73.9494 17.0684 70.5009 14.2167 66.3633C13.7817 65.7319 13.4977 65.009 13.3865 64.2504C13.2753 63.4918 13.34 62.7178 13.5754 61.9881C13.8109 61.2585 14.2109 60.5927 14.7446 60.0422C15.2783 59.4918 15.9313 59.0713 16.6533 58.8133C27.6033 54.8933 33.5033 50.48 36.8767 44.04C40.56 37.0066 41.2433 29.5466 38.7967 19.5266C38.6115 18.7679 38.6064 17.9764 38.7817 17.2154C38.9571 16.4544 39.308 15.7449 39.8065 15.1438C40.305 14.5426 40.9372 14.0664 41.6526 13.7532C42.368 13.44 43.1468 13.2985 43.9267 13.34V13.34Z" fill="white"/>
</svg>
