<svg width="160" height="160" viewBox="0 0 160 160" fill="none" xmlns="http://www.w3.org/2000/svg">
<path d="M70.94 106.5L86 88.1999C86.6772 87.3768 87.6441 86.8446 88.7018 86.7126C89.7595 86.5807 90.8276 86.8591 91.6862 87.4906C92.5449 88.1221 93.1289 89.0587 93.3181 90.1077C93.5073 91.1566 93.2873 92.2382 92.7033 93.1299L92.4367 93.4966L82.9867 104.977H99.18C102.547 104.977 104.467 108.723 102.663 111.433L102.417 111.767L80.8 138.45C80.1302 139.281 79.167 139.823 78.1091 139.965C77.0512 140.106 75.9793 139.837 75.1144 139.211C74.2495 138.586 73.6576 137.652 73.4608 136.603C73.264 135.554 73.4773 134.47 74.0567 133.573L74.3233 133.207L90.44 113.31H74.16C70.78 113.31 68.8633 109.537 70.6933 106.83L70.9433 106.497L86 88.1999L70.9433 106.497L70.94 106.5ZM86.6733 33.3933C107.793 33.3933 119.777 47.3733 121.52 64.2599H122.053C135.647 64.2599 146.667 75.2533 146.667 88.8099C146.667 102.37 135.647 113.36 122.053 113.36L108.31 113.363C109.37 111.963 110 110.223 110 108.333C110 107.167 109.76 106.053 109.323 105.043H122.68C131.327 105.043 138.337 97.9966 138.337 89.3066C138.337 80.6133 131.327 73.5666 122.68 73.5666H117.947C115.44 73.5666 113.253 71.5933 113.253 69.0799C113.253 52.9999 100.873 41.7099 86.67 41.7099C72.47 41.7099 60.0867 53.2033 60.0867 69.0766C60.0867 71.5933 57.9 73.5666 55.3967 73.5666H50.6633C42.0133 73.5666 35.0033 80.6133 35.0033 89.3066C35.0033 97.9966 42.0133 105.043 50.66 105.043H64.01C63.4255 106.395 63.2113 107.878 63.3893 109.341C63.5674 110.803 64.1314 112.191 65.0233 113.363H51.29C37.6933 113.363 26.6733 102.37 26.6733 88.8099C26.6733 75.5233 37.2567 64.6999 50.4733 64.2733L51.82 64.2599C53.5733 47.2633 65.5467 33.3933 86.67 33.3933H86.6733ZM66.6567 13.3333C71.7695 13.3308 76.8058 14.5754 81.3289 16.9593C85.852 19.3431 89.7254 22.7941 92.6133 27.0133C88.8087 26.5638 84.9656 26.5448 81.1567 26.9566C77.1314 23.4671 71.9839 21.5442 66.6567 21.5399C55.71 21.5399 46.38 29.6133 44.51 40.5266L43.4667 46.6266C43.3337 47.4019 42.9309 48.1052 42.3294 48.6121C41.728 49.119 40.9666 49.3969 40.18 49.3966H33.69C26.8133 49.3966 21.24 55.0966 21.24 62.1333C21.24 65.8199 22.77 69.1399 25.2167 71.4666C23.7671 73.6349 22.5978 75.978 21.7367 78.4399C18.1466 75.6357 15.5213 71.7809 14.227 67.4132C12.9326 63.0455 13.0339 58.3827 14.5165 54.0753C15.9992 49.7679 18.7893 46.0307 22.4977 43.385C26.2062 40.7392 30.6479 39.317 35.2033 39.3166H35.6767C36.9652 32.0355 40.7766 25.4407 46.4423 20.6894C52.1079 15.9381 59.2658 13.3337 66.66 13.3333H66.6567Z" fill="white"/>
</svg>
