<svg width="160" height="160" viewBox="0 0 160 160" fill="none" xmlns="http://www.w3.org/2000/svg">
<path d="M80.8667 13.5C83.02 13.5 84.7967 15.14 85.01 17.24L85.03 17.6667L85.0267 43.5833L102.097 28.5867C102.507 28.2191 102.986 27.9365 103.505 27.7552C104.025 27.5738 104.576 27.4973 105.126 27.5301C105.675 27.5629 106.213 27.7043 106.708 27.9462C107.203 28.188 107.644 28.5256 108.008 28.9392C108.371 29.3529 108.649 29.8345 108.825 30.3562C109.002 30.8779 109.073 31.4294 109.034 31.9787C108.996 32.528 108.849 33.0643 108.603 33.5566C108.356 34.0489 108.014 34.4873 107.597 34.8467L85.03 54.6767L85.02 76.6667H107.037L126.87 54.1067C127.548 53.3356 128.486 52.8418 129.505 52.72C130.525 52.5982 131.553 52.857 132.393 53.4467L132.75 53.7267C133.521 54.4043 134.015 55.3428 134.137 56.3621C134.258 57.3814 134 58.4097 133.41 59.25L133.13 59.61L118.13 76.6633H144.04C146.2 76.6633 147.973 78.3067 148.187 80.4067L148.207 80.8333C148.206 81.8643 147.824 82.8585 147.133 83.6238C146.442 84.3891 145.492 84.8711 144.467 84.9767L144.043 85H118.117L133.117 102.073C133.794 102.845 134.163 103.839 134.153 104.866C134.142 105.893 133.753 106.879 133.06 107.637L132.737 107.953C131.965 108.632 130.971 109.003 129.943 108.993C128.916 108.983 127.928 108.594 127.17 107.9L126.853 107.573L107.02 85.0033L85.0167 85L85.0133 107L107.597 126.843C108.368 127.521 108.862 128.459 108.983 129.479C109.105 130.498 108.846 131.526 108.257 132.367L107.977 132.723C107.299 133.495 106.361 133.989 105.342 134.112C104.323 134.234 103.294 133.976 102.453 133.387L102.097 133.103L85.0133 118.093L85.0067 144.02C85.0063 145.051 84.6238 146.045 83.933 146.81C83.2422 147.576 82.2922 148.058 81.2667 148.163L80.84 148.187C79.8085 148.186 78.8139 147.803 78.0485 147.112C77.2831 146.42 76.8015 145.469 76.6967 144.443L76.6733 144.017V118.113L59.6333 133.103C58.8032 133.833 57.7172 134.203 56.6141 134.132C55.5111 134.061 54.4814 133.555 53.7517 132.725C53.0219 131.895 52.6517 130.809 52.7227 129.706C52.7936 128.603 53.2999 127.573 54.13 126.843L76.68 107.017V85.0033H56.2067C56.1237 85.1212 56.0347 85.2347 55.94 85.3433L34.8667 109.327C34.1339 110.144 33.108 110.64 32.012 110.705C30.9161 110.77 29.8386 110.4 29.0138 109.676C28.189 108.951 27.6836 107.93 27.6074 106.835C27.5311 105.74 27.8902 104.659 28.6067 103.827L45.14 85.0033L17.6867 85.0067C16.6551 85.0071 15.6601 84.625 14.8941 83.9341C14.1281 83.2432 13.6456 82.2928 13.54 81.2667L13.52 80.84C13.52 78.6833 15.1567 76.9067 17.26 76.6967L17.6867 76.6733H42.0467L28.6067 61.3567C28.2425 60.9459 27.9631 60.4672 27.7845 59.9482C27.6059 59.4291 27.5317 58.8798 27.566 58.332C27.6003 57.7841 27.7426 57.2484 27.9846 56.7557C28.2266 56.263 28.5636 55.823 28.9761 55.4609C29.3887 55.0988 29.8688 54.8218 30.3888 54.6458C30.9087 54.4699 31.4583 54.3984 32.006 54.4354C32.5537 54.4725 33.0887 54.6175 33.5801 54.8619C34.0716 55.1064 34.51 55.4456 34.87 55.86L53.1333 76.67H76.6867V54.6667L54.13 34.8333C53.3589 34.1557 52.8651 33.2172 52.7433 32.1979C52.6215 31.1786 52.8803 30.1503 53.47 29.31L53.75 28.95C54.4281 28.1794 55.3668 27.6863 56.386 27.5651C57.4053 27.4439 58.4335 27.7032 59.2733 28.2933L59.6333 28.5733L76.6933 43.5733L76.6967 17.6667C76.6967 15.6533 78.1267 13.9733 80.0233 13.5833L80.4367 13.52L80.8633 13.5H80.8667Z" fill="white"/>
</svg>
