<svg width="160" height="160" viewBox="0 0 160 160" fill="none" xmlns="http://www.w3.org/2000/svg">
<path d="M50.8233 126.667H109.177C110.261 126.637 111.315 127.032 112.112 127.769C112.909 128.505 113.386 129.525 113.442 130.608C113.498 131.692 113.127 132.755 112.41 133.569C111.693 134.383 110.685 134.885 109.603 134.967L109.177 134.987H50.8233C49.7385 135.016 48.6851 134.621 47.8881 133.884C47.0911 133.148 46.6137 132.129 46.558 131.045C46.5023 129.961 46.8726 128.898 47.5899 128.084C48.3072 127.27 49.3145 126.768 50.3967 126.687L50.8233 126.667ZM30.8233 110H129.173C130.243 109.995 131.274 110.402 132.051 111.137C132.828 111.872 133.293 112.878 133.348 113.946C133.402 115.015 133.044 116.063 132.346 116.874C131.648 117.685 130.665 118.195 129.6 118.3L129.173 118.32H30.8267C29.7569 118.325 28.7264 117.918 27.949 117.183C27.1717 116.448 26.7074 115.442 26.6524 114.374C26.5975 113.305 26.9563 112.257 27.6541 111.446C28.352 110.635 29.3354 110.125 30.4 110.02L30.8267 110H30.8233ZM80 23.3333C101.123 23.3333 113.107 37.3166 114.85 54.1999H115.383C128.977 54.1999 139.997 65.1933 139.997 78.7499C139.997 92.3099 128.977 103.3 115.383 103.3H44.6167C31.02 103.3 20 92.3099 20 78.7499C20 65.1933 31.02 54.1999 44.6133 54.1999H45.1467C46.9 37.2033 58.8733 23.3333 80 23.3333ZM80 31.6499C65.7967 31.6499 53.4167 43.1433 53.4167 59.0166C53.4167 61.5333 51.23 63.5099 48.7233 63.5099H43.99C35.3433 63.5099 28.3333 70.5533 28.3333 79.2433C28.3333 87.9366 35.3433 94.9833 43.99 94.9833H116.01C124.657 94.9833 131.667 87.9366 131.667 79.2466C131.667 70.5533 124.657 63.5066 116.01 63.5066H111.277C108.77 63.5066 106.583 61.5332 106.583 59.0199C106.583 42.9399 94.2033 31.6533 80 31.6533V31.6499Z" fill="white"/>
</svg>
